<svg width="247" height="242" viewBox="0 0 247 242" fill="none" xmlns="http://www.w3.org/2000/svg">
<rect x="45" y="46" width="151" height="151" rx="13" fill="#F2F1F7" stroke="#565656" stroke-width="4"/>
<g filter="url(#filter0_d)">
<path d="M108.2 67V113.32L70.6 67H63.8V125.24H71.16V79L108.44 125H115.8V67H108.2Z" fill="#3EA2FF"/>
</g>
<g filter="url(#filter1_d)">
<path d="M143 169.85C143 161.591 143 157.461 144.582 154.295C146.034 151.39 148.39 149.034 151.295 147.582C154.461 146 158.591 146 166.85 146H198V175.15C198 183.409 198 187.539 196.418 190.705C194.966 193.61 192.61 195.966 189.705 197.418C186.539 199 182.409 199 174.15 199H143V169.85Z" fill="#3EA2FF"/>
</g>
<rect x="144.828" y="203.665" width="78.6109" height="7.3837" transform="rotate(-44.2325 144.828 203.665)" stroke="#3EA2FF" stroke-width="4"/>
<path d="M193.826 204.679L149.899 211.421L141.922 205.384L197.622 151.063L201.895 161.771C202.295 162.773 202.5 163.842 202.5 164.921L202.5 197.014L199.419 201.265C198.086 203.104 196.072 204.334 193.826 204.679Z" fill="#F2F1F7" stroke="#F2F1F7" stroke-width="3"/>
<rect x="199.5" y="109.5" width="8" height="53" rx="4" fill="#F2F1F7" stroke="#F2F1F7" stroke-width="3"/>
<rect x="68.5" y="200.5" width="102" height="4" rx="2" fill="#F2F1F7" stroke="#F2F1F7" stroke-width="3"/>
<defs>
<filter id="filter0_d" x="59.8" y="67" width="60" height="66.24" filterUnits="userSpaceOnUse" color-interpolation-filters="sRGB">
<feFlood flood-opacity="0" result="BackgroundImageFix"/>
<feColorMatrix in="SourceAlpha" type="matrix" values="0 0 0 0 0 0 0 0 0 0 0 0 0 0 0 0 0 0 127 0"/>
<feOffset dy="4"/>
<feGaussianBlur stdDeviation="2"/>
<feColorMatrix type="matrix" values="0 0 0 0 0.241667 0 0 0 0 0.636 0 0 0 0 1 0 0 0 0.25 0"/>
<feBlend mode="normal" in2="BackgroundImageFix" result="effect1_dropShadow"/>
<feBlend mode="normal" in="SourceGraphic" in2="effect1_dropShadow" result="shape"/>
</filter>
<filter id="filter1_d" x="136" y="142" width="69" height="67" filterUnits="userSpaceOnUse" color-interpolation-filters="sRGB">
<feFlood flood-opacity="0" result="BackgroundImageFix"/>
<feColorMatrix in="SourceAlpha" type="matrix" values="0 0 0 0 0 0 0 0 0 0 0 0 0 0 0 0 0 0 127 0"/>
<feMorphology radius="3" operator="dilate" in="SourceAlpha" result="effect1_dropShadow"/>
<feOffset dy="3"/>
<feGaussianBlur stdDeviation="2"/>
<feColorMatrix type="matrix" values="0 0 0 0 0.241667 0 0 0 0 0.636 0 0 0 0 1 0 0 0 0.25 0"/>
<feBlend mode="normal" in2="BackgroundImageFix" result="effect1_dropShadow"/>
<feBlend mode="normal" in="SourceGraphic" in2="effect1_dropShadow" result="shape"/>
</filter>
</defs>
</svg>
