<?xml version="1.0" encoding="utf-8"?>
<!-- Svg Vector Icons : http://www.onlinewebfonts.com/icon -->
<!DOCTYPE svg PUBLIC "-//W3C//DTD SVG 1.1//EN" "http://www.w3.org/Graphics/SVG/1.1/DTD/svg11.dtd">
<svg version="1.1" xmlns="http://www.w3.org/2000/svg" xmlns:xlink="http://www.w3.org/1999/xlink" x="0px" y="0px" viewBox="0 0 1000 1000" enable-background="new 0 0 1000 1000" xml:space="preserve">
<metadata> Svg Vector Icons : http://www.onlinewebfonts.com/icon </metadata>
<g><g transform="translate(0.000000,240.000000) scale(0.100000,-0.100000)"><path  fill="white" d="M5009.9,1976.6c-315.5-63.1-1131.8-212.9-1814.1-335.2c-682.2-122.3-1419.7-256.3-1636.6-295.8c-216.9-43.4-607.3-114.4-867.6-157.7c-260.3-43.4-500.8-90.7-532.4-98.6C107.9,1073.5,100,627.9,100-2598c0-3225.9,7.9-3671.5,59.2-3687.3c78.9-23.6,1837.7-343.1,2918.3-532.4c228.7-39.4,903.1-161.7,1498.6-272.1c595.5-110.4,1096.3-201.2,1116.1-201.2c15.8,0,27.6,2109.9,27.6,4693c0,4444.5-3.9,4693-67.1,4689C5613.2,2091,5325.4,2035.8,5009.9,1976.6z M4300-2570.4c0-812.4-7.9-1482.8-15.8-1490.7c-7.9-7.9-169.6-7.9-358.9,3.9c-410.1,23.7-291.8-90.7-1108.2,1112.1c-311.5,453.5-567.9,832.1-575.8,840c-7.9,7.9-7.9-394.4,0-891.3c11.8-1037.2,39.4-966.2-366.8-922.8l-256.3,27.6v1309.3V-1269l181.4,27.6c102.5,11.8,260.3,23.7,351,23.7h165.6l634.9-911l638.9-911l7.9,938.6l11.8,942.5l216.9,23.7c118.3,11.8,276.1,23.7,347,27.6l126.2,7.9V-2570.4z"/><path fill="white" d="M6035.2,537.2V83.6h1222.5h1222.5v-205.1v-209H7269.6H6054.9l-11.8-284l-11.8-287.9h1226.5h1222.5v-216.9v-216.9H7257.7H6035.2v-276.1v-276.1h1222.5h1222.5v-216.9V-2322H7257.7H6035.2V-2598v-276.1h1222.5h1222.5V-3091v-216.9H7257.7H6035.2v-295.8v-295.8h1222.5h1222.5v-216.9v-216.9H7257.7H6035.2v-276.1v-276.1h1222.5h1222.5v-216.9v-216.9H7257.7H6035.2V-5753v-433.8h1597.2h1597.2l7.9,2437.2l11.8,2433.3l315.5,19.7l315.5,19.7v907v907L9556.9,549l-327.3,11.8v213v216.9H7632.4H6035.2V537.2z"/><path fill="white" d="M9505.6-2558.6v-946.5h197.2H9900v946.5v946.5h-197.2h-197.2V-2558.6z"/><path fill="white" d="M9505.6-4707.9v-966.2h197.2H9900v966.2v966.2h-197.2h-197.2V-4707.9z"/></g></g>
</svg>